<?xml version="1.0" encoding="utf-8"?>
<!-- Generator: Adobe Illustrator 24.0.0, SVG Export Plug-In . SVG Version: 6.00 Build 0)  -->
<svg version="1.1" id="Layer_1" xmlns="http://www.w3.org/2000/svg" xmlns:xlink="http://www.w3.org/1999/xlink" x="0px" y="0px"
	 viewBox="0 0 820.3 153.8" style="enable-background:new 0 0 820.3 153.8;" xml:space="preserve">
<style type="text/css">
	.st0{fill:#FFFFFF;}
</style>
<g>
	<g>
		<path class="st0" d="M381.6,41.6c2.5,0.2,4.6,0.5,6.2,0.9c1.6,0.4,2.9,0.7,3.6,1c-2.9,17.6-6.2,33.1-9.9,46.5
			c-3.7,13.4-7.2,24.7-10.5,34c-3.9,10.8-7.8,20.2-11.7,28.1c-0.7,0.1-1.4,0.2-2,0.3c-0.7,0.1-1.4,0.1-2.2,0.1c-0.8,0-1.6,0-2.5,0
			c-1.8,0-3.3-0.1-4.3-0.1c-1-0.1-1.9-0.2-2.7-0.3c-4.1-8.2-8-17.8-11.9-28.7c-3.4-9.4-6.9-20.7-10.6-34.1
			c-3.7-13.3-7-28.6-9.9-45.7c1.1-0.3,2.2-0.6,3.3-0.9c1.1-0.2,2.2-0.4,3.3-0.6c1.2-0.2,2.4-0.4,3.8-0.6c2.1,13.8,4.8,26.9,8,39.2
			c3.2,12.3,6.4,23.2,9.5,32.7c3.6,11,7.3,21.3,11,30.7h0.6c3.8-9.7,7.4-20,11-31c3.1-9.5,6.3-20.4,9.5-32.7
			C376.7,68.3,379.4,55.3,381.6,41.6z"/>
		<path class="st0" d="M424.4,153.2c-8,0-13.7-1.7-17.1-5.1c-3.4-3.4-5.1-8.4-5.1-14.9c0-6.7,2-11.9,6-15.7c4-3.8,10.4-5.8,19.2-6
			l17-0.3v-10.7c0-4.6-1.2-8-3.6-10c-2.4-2-6-3-10.8-3c-3,0-6.2,0.3-9.7,0.9c-3.4,0.6-6.1,1.9-8.1,3.7c-0.9-0.6-1.7-1.2-2.5-1.9
			c-0.7-0.6-1.4-1.3-2.1-2c-0.7-0.8-1.4-1.6-2-2.6c1.3-1,2.9-2,4.8-2.9c1.9-0.9,4-1.6,6.2-2.1c2.2-0.6,4.4-1,6.7-1.3
			c2.3-0.3,4.5-0.4,6.6-0.4c8.2,0,14.4,1.7,18.3,5.2c4,3.5,6,9.2,6,17.2v50.5c-3.2,0.3-6.5,0.5-9.9,0.7c-2.9,0.2-6.1,0.4-9.6,0.5
			C431.3,153.1,427.8,153.2,424.4,153.2z M425.1,144.8c2.7,0,5.3,0,7.6-0.1c2.4,0,4.4-0.2,6.2-0.4c2-0.2,3.9-0.4,5.5-0.6v-24.5
			l-17,0.3c-3.5,0.1-6.3,0.5-8.3,1.2c-2,0.7-3.6,1.7-4.7,3c-1.1,1.3-1.8,2.7-2.2,4.3c-0.3,1.6-0.5,3.3-0.5,5.1
			c0,1.3,0.2,2.7,0.5,4.1c0.3,1.4,1,2.6,2,3.7c1,1.1,2.3,2,4.1,2.7C420,144.4,422.2,144.8,425.1,144.8z"/>
		<path class="st0" d="M489.5,152.2c-0.8,0.1-1.6,0.2-2.4,0.2c-0.9,0-1.6,0.1-2.3,0.1c-1,0-1.9,0-2.9-0.1c-1,0-1.7-0.1-2.3-0.2V44.4
			l9.9-2.2V152.2z"/>
		<path class="st0" d="M526.5,152.2c-0.7,0.1-1.4,0.1-2,0.1h-3.6c-0.7,0-1.4,0-2.2,0c-0.8,0-1.6-0.1-2.4-0.1V80.8l10.3-2.3V152.2z"
			/>
		<path class="st0" d="M578.3,153c-10.3,0-18.1-3.1-23.1-9.2c-5.1-6.1-7.6-15.9-7.6-29.2c0-5.2,0.7-10,2.2-14.4
			c1.5-4.4,3.6-8.2,6.3-11.3c2.8-3.1,6.1-5.6,10.1-7.4c4-1.8,8.5-2.7,13.6-2.7c1.7,0,3.5,0.1,5.3,0.1c1.8,0.1,3.4,0.2,4.7,0.4
			c1.6,0.2,3.2,0.3,4.6,0.4V44.4l9.9-2.2v109.5c-2.7,0.3-5.5,0.5-8.4,0.7c-2.5,0.2-5.3,0.3-8.4,0.4C584.3,153,581.3,153,578.3,153z
			 M578.2,144.6c1.9,0,3.9,0,5.8-0.1c1.9,0,3.7-0.1,5.2-0.2c1.7-0.1,3.4-0.2,5.1-0.4V88.5c-1.3-0.2-2.7-0.4-4.2-0.6
			c-1.4-0.2-2.9-0.4-4.7-0.5c-1.7-0.1-3.7-0.2-5.8-0.2c-3.8,0-7.1,0.7-9.8,2.2c-2.8,1.5-5,3.4-6.8,5.9c-1.8,2.5-3.1,5.4-3.9,8.7
			c-0.8,3.3-1.2,6.8-1.2,10.6c0,4.9,0.3,9.3,1,13c0.7,3.7,1.8,6.8,3.4,9.4c1.6,2.5,3.7,4.4,6.3,5.7
			C571.1,144,574.4,144.6,578.2,144.6z"/>
		<path class="st0" d="M654.2,153.2c-10,0-17.3-3.3-21.9-9.8c-4.6-6.5-7-16.2-7-29c0-5.5,0.4-10.5,1.3-15c0.9-4.5,2.4-8.2,4.6-11.3
			c2.2-3.1,5.2-5.5,8.8-7.1c3.7-1.6,8.4-2.5,14.1-2.5c5.6,0,10.3,0.8,14,2.5c3.7,1.6,6.7,4,8.9,7.1c2.2,3.1,3.8,6.9,4.6,11.3
			c0.9,4.5,1.3,9.4,1.3,15c0,12.8-2.3,22.5-7,29C671.4,149.9,664.1,153.2,654.2,153.2z M654.2,145.1c3.7,0,6.7-0.7,9.2-2.2
			c2.5-1.5,4.5-3.6,6-6.3c1.5-2.7,2.6-5.9,3.3-9.6c0.6-3.7,0.9-7.9,0.9-12.4c0-9.1-1.4-16-4.2-20.6c-2.8-4.6-7.9-7-15.2-7
			c-7.3,0-12.4,2.3-15.2,7c-2.8,4.6-4.2,11.5-4.2,20.6c0,4.5,0.3,8.7,0.9,12.4c0.6,3.7,1.7,6.9,3.3,9.6c1.5,2.7,3.6,4.8,6,6.3
			C647.4,144.3,650.5,145.1,654.2,145.1z"/>
		<path class="st0" d="M765.7,151.9c-0.8-4.5-1.5-9-2.2-13.4c-0.7-4.4-1.6-8.8-2.7-13.3h-35.4c-1,4.4-1.8,8.9-2.5,13.3
			c-0.7,4.4-1.5,8.9-2.2,13.4c-0.8,0.1-1.7,0.2-2.8,0.3c-0.9,0.1-1.9,0.1-3.1,0.1c-1.2,0-2.5,0-4,0c-3.2,0-6.4-0.1-9.7-0.4
			c2.8-15.9,5.9-30.4,9.4-43.7c3.4-13.3,6.7-24.8,9.8-34.4c3.5-11.3,7-21.6,10.6-30.7c2.2-0.2,4.3-0.3,6.2-0.4
			c1.9-0.1,3.9-0.1,5.8-0.1c1.9,0,3.7,0,5.3,0.1c1.6,0.1,3,0.1,4.1,0.2c1.4,0.1,2.6,0.2,3.6,0.3c3.6,9.2,7.2,19.4,10.7,30.7
			c3.1,9.7,6.3,21.2,9.7,34.4c3.4,13.3,6.5,27.9,9.3,43.7c-0.8,0.1-1.6,0.2-2.6,0.3c-0.9,0.1-1.9,0.1-3,0.1c-1.2,0-2.5,0-4.1,0
			C772.6,152.3,769.2,152.2,765.7,151.9z M742.8,60.8c-2.5,7.9-4.9,15.8-7.3,23.7c-2.3,7.9-4.4,15.9-6.4,24.1h27.6
			c-1.9-8-4-16-6.3-23.9c-2.3-7.9-4.6-15.9-7-24H742.8z"/>
		<path class="st0" d="M820.3,151.9c-0.8,0.1-1.7,0.2-2.8,0.3c-0.9,0.1-1.9,0.1-3.1,0.1c-1.2,0-2.5,0-4,0c-3.1,0-6.2-0.1-9.4-0.4
			V42.9c3.2-0.3,6.3-0.4,9.4-0.4c1.5,0,2.8,0,4,0.1c1.2,0,2.2,0.1,3.1,0.2c1.1,0.1,2,0.1,2.8,0.1V151.9z"/>
	</g>
</g>
<path class="st0" d="M242,49.9c-2-4.1-2-8.8,0-12.9l17-34.5c0.7-1.4-0.8-3-2.3-2.3l-34.5,17c-4.1,2-8.8,2-12.9,0l-34.5-17
	c-1.4-0.7-3,0.8-2.3,2.3l17,34.5c2,4.1,2,8.8,0,12.9l-4.6,9.4l-70.5,72.5L79.7,96.9l-0.2-0.5c-1.4-2.8-1.4-6.2,0-9l11.7-23.7
	c0.3-0.7-0.4-1.4-1.1-1.1L66.4,74.3c-2.8,1.4-6.2,1.4-9,0L33.6,62.6c-0.7-0.3-1.4,0.4-1.1,1.1l11.7,23.7c1.4,2.8,1.4,6.2,0,9
	L44,96.9L2.7,138.3c-3.6,3.6-3.6,9.3,0,12.9c1.8,1.8,4.1,2.7,6.4,2.7c2.3,0,4.7-0.9,6.4-2.7l41.3-41.4l0.4-0.2c2.8-1.4,6.2-1.4,9,0
	l0.4,0.2l41.3,41.4c3.5,3.5,9.2,3.6,12.8,0.1l0.1-0.1l79-76.9l9.4-4.6c4.1-2,8.8-2,12.9,0l34.5,17c1.4,0.7,3-0.8,2.3-2.3L242,49.9z"
	/>
</svg>
